<?xml version="1.0" encoding="UTF-8"?>
<svg version="1.1" xmlns="http://www.w3.org/2000/svg" width="372" height="396">
<path d="M0 0 C1.984375 1.92578125 1.984375 1.92578125 3.75 4.3125 C4.63945312 5.48232422 4.63945312 5.48232422 5.546875 6.67578125 C6.90950042 8.85524933 7.56341486 10.48963547 8 13 C8.66 13 9.32 13 10 13 C10.35191406 13.67804688 10.70382813 14.35609375 11.06640625 15.0546875 C14.06210053 20.70192319 17.27781876 25.95005996 21.01171875 31.1328125 C23.95322114 35.37458608 26.64291869 39.76539344 29.35595703 44.15551758 C32.13877764 48.65088448 35.00975933 53.06368876 38.0390625 57.3984375 C39 59 39 59 39 61 C39.66 61 40.32 61 41 61 C41.2475 61.70125 41.495 62.4025 41.75 63.125 C45.60119547 71.98274958 50.74028198 74.42332591 59.0859375 78.1796875 C73.09580913 84.48845994 82.35889382 97.08832894 88 111 C93.88430877 127.71059927 92.23434611 146.09137799 85 162 C77.49118122 176.27622059 65.31468232 186.65884633 50 192 C44.31092088 193.62517603 39.22803539 194.30236264 33.328125 194.34375 C32.52445496 194.3583728 31.72078491 194.37299561 30.89276123 194.38806152 C28.34522401 194.43413223 25.79775679 194.46854024 23.25 194.5 C-0.2080972 194.13463302 -0.2080972 194.13463302 -20.5625 204.41015625 C-27.71559104 212.32131944 -30.63570902 222.44144204 -33.14453125 232.56640625 C-36.75699304 247.1297339 -41.1112367 258.22387908 -52 269 C-52.60328125 269.63679688 -53.2065625 270.27359375 -53.828125 270.9296875 C-65.2664003 282.11930464 -82.22420921 286.22441085 -97.75 286.25 C-103.8758075 286.17786702 -109.92302744 285.77167906 -116 285 C-116 284.01 -116 283.02 -116 282 C-114.87464844 281.76216797 -114.87464844 281.76216797 -113.7265625 281.51953125 C-102.85895575 279.0421549 -91.31373992 274.51057114 -83.37109375 266.3203125 C-82 265 -82 265 -80 265 C-79.7525 264.443125 -79.505 263.88625 -79.25 263.3125 C-78 261 -78 261 -76.109375 258.6875 C-67.92773079 248.26347923 -64.57887621 234.98000489 -63.37353516 221.98999023 C-61.86134444 205.81431243 -54.13484215 190.92135794 -42 180 C-41.49855469 179.48308594 -40.99710937 178.96617187 -40.48046875 178.43359375 C-36.23910554 174.30311585 -31.59487507 171.45421225 -26.375 168.75 C-25.76100342 168.42088623 -25.14700684 168.09177246 -24.5144043 167.75268555 C-10.83120932 160.97085135 4.14190224 161.55085362 19.00024414 161.48876953 C21.62151111 161.47297156 24.24219329 161.43998614 26.86328125 161.40625 C27.64786209 161.40927124 28.43244293 161.41229248 29.24079895 161.41540527 C37.92672821 161.29907612 44.91427929 158.93911744 51.2734375 152.97265625 C57.31851925 146.0659452 58.35483449 138.50276546 58.28125 129.58984375 C57.7838474 123.24105222 55.69314472 118.95362852 51.5625 114.1875 C50.716875 113.465625 49.87125 112.74375 49 112 C48.2575 111.29875 47.515 110.5975 46.75 109.875 C38.9078362 104.52807013 29.75583171 103.84775224 20.54296875 103.90234375 C19.18852409 103.90446617 19.18852409 103.90446617 17.80671692 103.90663147 C14.93361037 103.91221177 12.06058284 103.92476066 9.1875 103.9375 C7.23502717 103.94251755 5.28255311 103.94708001 3.33007812 103.95117188 C-1.44664485 103.96217475 -6.22330904 103.97942582 -11 104 C-11.07570724 104.56511292 -11.15141449 105.13022583 -11.22941589 105.71246338 C-11.80364766 109.97534589 -12.40108312 114.23222064 -13.05078125 118.484375 C-13.75176453 123.13262178 -14.32310353 127.78274808 -14.85546875 132.453125 C-15.19303108 134.96905715 -15.53285074 137.48468753 -15.875 140 C-15.99254639 141.21010742 -16.11009277 142.42021484 -16.23120117 143.66699219 C-16.75557931 147.21562666 -17.27371909 149.84902945 -19 153 C-23.12637537 155.58049797 -27.3476972 156.70031351 -32 158 C-40.35847423 162.08536579 -47.31437069 168.00567041 -53.66015625 174.76953125 C-55 176 -55 176 -57 176 C-52.39857307 149.25934983 -47.16108799 122.63690429 -42 96 C-42.65073486 96.01047363 -43.30146973 96.02094727 -43.97192383 96.03173828 C-46.9187433 96.07329835 -49.86550111 96.09932608 -52.8125 96.125 C-53.83666016 96.14175781 -54.86082031 96.15851563 -55.91601562 96.17578125 C-56.89892578 96.18222656 -57.88183594 96.18867188 -58.89453125 96.1953125 C-59.80050049 96.20578613 -60.70646973 96.21625977 -61.63989258 96.22705078 C-64 96 -64 96 -67 94 C-67.77802787 90.41122636 -66.96861009 88.94646177 -65.10351562 85.76538086 C-64.21546009 84.51148118 -63.31542498 83.26601557 -62.40625 82.02734375 C-61.38810857 80.59444932 -60.37124727 79.16064469 -59.35546875 77.72607422 C-58.81003418 76.96188171 -58.26459961 76.19768921 -57.70263672 75.41033936 C-54.72495271 71.19497804 -51.85142341 66.9095419 -48.96875 62.62890625 C-47.73313006 60.79878954 -46.49745229 58.96871188 -45.26171875 57.13867188 C-44.64216309 56.22013428 -44.02260742 55.30159668 -43.38427734 54.35522461 C-41.5039554 51.56836237 -39.62115662 48.78318437 -37.73828125 45.99804688 C-31.61083127 36.92269574 -25.52942418 27.82397286 -19.61791992 18.60609436 C-6.37869881 -2.03392642 -6.37869881 -2.03392642 0 0 Z " fill="#FDFDFC" transform="translate(188,72)"/>
<path d="M0 0 C19.09372804 2.74782851 39.47583287 15.84349585 53.50488281 28.64892578 C54.94408591 29.9494728 56.42074132 31.20820455 57.8984375 32.46484375 C81.43945217 52.80770937 96.70718746 85.07968331 99.33203125 115.8984375 C101.41409713 144.6555196 96.48584581 175.08434007 79.73828125 199.265625 C76.23084717 202.76805561 72.49042109 205.08190453 68.1875 207.5 C66.9358606 208.21337524 66.9358606 208.21337524 65.65893555 208.94116211 C54.25863034 215.27682845 41.61129663 220.53239195 28.5 221.625 C27.21609375 221.73714844 27.21609375 221.73714844 25.90625 221.8515625 C25.2771875 221.90054688 24.648125 221.94953125 24 222 C24 221.01 24 220.02 24 219 C26.0546875 217.0546875 26.0546875 217.0546875 28.875 214.875 C42.7124971 203.87960756 52.78534759 192.65130334 61 177 C61.55945313 175.93652344 62.11890625 174.87304688 62.6953125 173.77734375 C74.75429451 149.32609129 75.37414203 119.38790239 66.69262695 93.7668457 C59.86948168 74.73963921 48.20362693 55.59286069 30.70043945 44.54907227 C23.90741585 40.19086086 20.24145375 35.67732449 16.3125 28.6875 C15.27000255 26.89794444 14.22442931 25.11017712 13.17578125 23.32421875 C12.66611816 22.44685059 12.15645508 21.56948242 11.63134766 20.66552734 C9.41108194 17.03774209 6.93605322 13.61995158 4.40698242 10.20239258 C3.0502838 8.07871076 2.4339437 6.46228846 2 4 C1.34 4 0.68 4 0 4 C-0.33 3.01 -0.66 2.02 -1 1 C-0.67 0.67 -0.34 0.34 0 0 Z " fill="#F17F25" transform="translate(219,88)"/>
<path d="M0 0 C-9.34162163 13.91588682 -18.7001064 27.76710449 -29 41 C-29.72445312 41.93714844 -30.44890625 42.87429687 -31.1953125 43.83984375 C-34.46501157 48.00069609 -37.85573213 51.91327506 -41.5 55.75 C-59.05099612 75.08328316 -66.7419293 103.58321856 -66.24609375 129.25 C-64.56171045 154.91679316 -55.48901921 180.51098079 -37 199 C-36.06329491 208.7417329 -38.64682118 219.29364235 -43 228 C-46.26171994 227.41518883 -47.93105169 226.45984281 -50.28515625 224.1484375 C-51.19696655 223.25354614 -51.19696655 223.25354614 -52.12719727 222.34057617 C-52.76584717 221.69193604 -53.40449707 221.0432959 -54.0625 220.375 C-54.72499756 219.70637939 -55.38749512 219.03775879 -56.07006836 218.34887695 C-62.47570002 211.74232066 -67.8827153 204.62994965 -73 197 C-73.56976563 196.17628906 -74.13953125 195.35257813 -74.7265625 194.50390625 C-87.86736384 174.23053091 -93.41189004 149.60068591 -93.3125 125.75 C-93.31100952 125.06746155 -93.30951904 124.3849231 -93.3079834 123.68170166 C-93.26787145 113.46303356 -92.73818859 103.87872349 -90 94 C-89.58234375 92.39705078 -89.58234375 92.39705078 -89.15625 90.76171875 C-79.66741397 57.26449155 -58.16611536 27.8419547 -27.69140625 10.4921875 C-5.3528855 -1.78429517 -5.3528855 -1.78429517 0 0 Z " fill="#F27925" transform="translate(150,92)"/>
<path d="M0 0 C-1.64352363 1.69488374 -3.31006905 3.35200282 -5 5 C-5.48855469 5.49628906 -5.97710937 5.99257813 -6.48046875 6.50390625 C-28.47873184 27.39470529 -59.78088122 36.1805474 -89.375 36.25 C-90.37611816 36.25250763 -90.37611816 36.25250763 -91.39746094 36.25506592 C-104.12092134 36.25697658 -115.91416057 35.23741321 -128 31 C-126.63160932 27.38353891 -125.00991697 24.06179438 -123.125 20.6875 C-120.61524486 16.18702284 -118.28030178 11.61953924 -116 7 C-114.31197266 7.2165625 -114.31197266 7.2165625 -112.58984375 7.4375 C-98.09187374 9.22629319 -84.71277458 9.41361502 -70.27758789 7.00390625 C-63.30790187 5.89958527 -57.00151422 6.20270715 -50 7 C-35.10634885 7.89743795 -20.91572821 5.15106037 -7.0390625 -0.109375 C-4.06766456 -0.98017028 -2.81855117 -1.13852806 0 0 Z " fill="#EC4C24" transform="translate(279,313)"/>
<path d="M0 0 C0.99 0.495 0.99 0.495 2 1 C2.46350596 25.41944563 -4.26281077 52.05303938 -18.26171875 72.265625 C-21.76915283 75.76805561 -25.50957891 78.08190453 -29.8125 80.5 C-31.0641394 81.21337524 -31.0641394 81.21337524 -32.34106445 81.94116211 C-43.74136966 88.27682845 -56.38870337 93.53239195 -69.5 94.625 C-70.78390625 94.73714844 -70.78390625 94.73714844 -72.09375 94.8515625 C-72.7228125 94.90054688 -73.351875 94.94953125 -74 95 C-74 94.01 -74 93.02 -74 92 C-71.9453125 90.0546875 -71.9453125 90.0546875 -69.125 87.875 C-50.10835841 72.76421547 -39.21365046 56.17034641 -30 34 C-29.34 34 -28.68 34 -28 34 C-28.14204741 35.58367747 -28.28880153 37.16693318 -28.4375 38.75 C-28.51871094 39.63171875 -28.59992188 40.5134375 -28.68359375 41.421875 C-28.96513408 43.71590734 -29.25594827 45.81219226 -30 48 C-30.99 48.495 -30.99 48.495 -32 49 C-32.66 49.99 -33.32 50.98 -34 52 C-34.66 52.66 -35.32 53.32 -36 54 C-36.45811675 55.97235333 -36.45811675 55.97235333 -36.625 58.125 C-36.810625 60.043125 -36.810625 60.043125 -37 62 C-37.66 62 -38.32 62 -39 62 C-39.33 62.99 -39.66 63.98 -40 65 C-40.61875 65.4125 -41.2375 65.825 -41.875 66.25 C-44.31248315 67.9764827 -44.31248315 67.9764827 -45.4375 71.5 C-47.23862235 75.53451407 -48.27173618 75.91910857 -52 78 C-54.21197529 80.1702399 -56.28872486 82.41250494 -58 85 C-58 85.99 -58 86.98 -58 88 C-56.88625 86.824375 -56.88625 86.824375 -55.75 85.625 C-51.2337576 81.31404134 -48.49407875 80.75011842 -42.25 80.875 C-41.07953125 80.89304687 -39.9090625 80.91109375 -38.703125 80.9296875 C-37.81109375 80.95289063 -36.9190625 80.97609375 -36 81 C-36 79.68 -36 78.36 -36 77 C-35.01 77 -34.02 77 -33 77 C-33 76.34 -33 75.68 -33 75 C-31.68 75 -30.36 75 -29 75 C-28.505 73.02 -28.505 73.02 -28 71 C-27.67 71.66 -27.34 72.32 -27 73 C-24.69 72.67 -22.38 72.34 -20 72 C-20.33 67.71 -20.66 63.42 -21 59 C-15 57 -15 57 -13 57 C-12.814375 55.8553125 -12.814375 55.8553125 -12.625 54.6875 C-12 52 -12 52 -10 49 C-9.34 49 -8.68 49 -8 49 C-6.98972272 44.68948362 -6.71950814 40.40642256 -6.5 36 C-6.2801553 31.58682121 -5.9541757 27.32559649 -5 23 C-5 22.34 -5 21.68 -5 21 C-4.34 21 -3.68 21 -3 21 C-3 17.7 -3 14.4 -3 11 C-2.34 10.67 -1.68 10.34 -1 10 C-0.53248212 7.64400765 -0.53248212 7.64400765 -0.375 4.9375 C-0.30023438 4.01839844 -0.22546875 3.09929687 -0.1484375 2.15234375 C-0.07496094 1.08693359 -0.07496094 1.08693359 0 0 Z " fill="#E85A2A" transform="translate(317,215)"/>
<path d="M0 0 C-9.3412678 13.91535973 -18.69537154 27.77135759 -29 41 C-29.73605469 41.94875 -30.47210938 42.8975 -31.23046875 43.875 C-35.61448128 49.43769288 -40.23885589 54.75767643 -45 60 C-45.495 58.02 -45.495 58.02 -46 56 C-45.34 56 -44.68 56 -44 56 C-43.67 54.68 -43.34 53.36 -43 52 C-41.02 51.505 -41.02 51.505 -39 51 C-38.83081732 49.41693353 -38.66476064 47.83353281 -38.5 46.25 C-38.4071875 45.36828125 -38.314375 44.4865625 -38.21875 43.578125 C-37.94363687 40.76695165 -37.94363687 40.76695165 -38 37 C-36.02 37 -34.04 37 -32 37 C-31.52820313 35.95199219 -31.52820313 35.95199219 -31.046875 34.8828125 C-30.61890625 33.97273438 -30.1909375 33.06265625 -29.75 32.125 C-29.33234375 31.22007813 -28.9146875 30.31515625 -28.484375 29.3828125 C-26.84094911 26.74468147 -25.76650736 26.22451965 -23 25 C-21.71745356 22.46229997 -21.71745356 22.46229997 -21 20 C-19.68 20 -18.36 20 -17 20 C-16.34 18.68 -15.68 17.36 -15 16 C-15.99 15.67 -16.98 15.34 -18 15 C-18.495 13.515 -18.495 13.515 -19 12 C-22.52908336 11.58481372 -24.0119449 12.00655798 -27.1875 13.75 C-30.03641823 15.69849608 -30.03641823 15.69849608 -31 18.0625 C-32 20 -32 20 -35.0625 21.5 C-36.031875 21.995 -37.00125 22.49 -38 23 C-38.36162029 24.32594105 -38.69728039 25.65938457 -39 27 C-41.4375 28.3125 -41.4375 28.3125 -44 29 C-44.66 28.67 -45.32 28.34 -46 28 C-45.505 31.465 -45.505 31.465 -45 35 C-47.89234315 35.82638376 -49.88742431 36 -53 36 C-53.77321882 38.98241547 -54.41196203 41.97580475 -55 45 C-55.66 44.01 -56.32 43.02 -57 42 C-60.16717283 43.58358642 -61.73268318 44.45263699 -63.3125 47.6875 C-63.539375 48.450625 -63.76625 49.21375 -64 50 C-64.66 50 -65.32 50 -66 50 C-66 50.66 -66 51.32 -66 52 C-66.99 52.66 -67.98 53.32 -69 54 C-69.33 54.99 -69.66 55.98 -70 57 C-70.598125 57.556875 -71.19625 58.11375 -71.8125 58.6875 C-74.71619001 61.75711515 -76.25857494 65.18368551 -78 69 C-78.66 68.67 -79.32 68.34 -80 68 C-75.3728529 55.66094107 -67.85541791 45.56956451 -59 36 C-58.53078125 35.48695312 -58.0615625 34.97390625 -57.578125 34.4453125 C-47.38143883 23.40824011 -16.24814919 -5.41604973 0 0 Z " fill="#F0A12F" transform="translate(150,92)"/>
<path d="M0 0 C0.66 0 1.32 0 2 0 C2.32613281 0.75925781 2.65226562 1.51851563 2.98828125 2.30078125 C3.42527344 3.29464844 3.86226563 4.28851563 4.3125 5.3125 C4.74175781 6.29863281 5.17101562 7.28476562 5.61328125 8.30078125 C6.88026077 10.76693011 8.03124885 12.12362427 10 14 C10 14.66 10 15.32 10 16 C11.11375 15.938125 12.2275 15.87625 13.375 15.8125 C15.169375 15.9053125 15.169375 15.9053125 17 16 C19.40914637 19.61371956 19 21.77800155 19 26 C20.63473516 29.12474627 20.63473516 29.12474627 23.125 29.6875 C23.74375 29.790625 24.3625 29.89375 25 30 C25 30.66 25 31.32 25 32 C25.66 32 26.32 32 27 32 C27.0825 32.721875 27.165 33.44375 27.25 34.1875 C28.16250417 37.60939065 29.58171929 39.43946748 32 42 C32.99 42.33 33.98 42.66 35 43 C35.33 42.01 35.66 41.02 36 40 C36.33 39.67 36.66 39.34 37 39 C36.34 37.35 35.68 35.7 35 34 C35.66 33.34 36.32 32.68 37 32 C37.99 32.495 37.99 32.495 39 33 C39 32.34 39 31.68 39 31 C39.66 30.67 40.32 30.34 41 30 C41.65772428 26.97065509 41.65772428 26.97065509 42 24 C40.35 24 38.7 24 37 24 C37.3403125 23.195625 37.3403125 23.195625 37.6875 22.375 C38.1392781 18.94148646 36.59816113 17.01191906 35 14 C34.3125 11.125 34.3125 11.125 34 9 C32.68 8.67 31.36 8.34 30 8 C29.67 5.69 29.34 3.38 29 1 C32.11558244 3.94830284 34.59037969 7.06152037 37.0625 10.5625 C39.66200153 14.29609135 39.66200153 14.29609135 42.72265625 17.6328125 C44 19 44 19 44.375 22.3125 C44.03405088 31.0797632 41.92437256 40.15125487 38 48 C34.73828006 47.41518883 33.06894831 46.45984281 30.71484375 44.1484375 C30.10697021 43.55184326 29.49909668 42.95524902 28.87280273 42.34057617 C28.23415283 41.69193604 27.59550293 41.0432959 26.9375 40.375 C26.27500244 39.70637939 25.61250488 39.03775879 24.92993164 38.34887695 C14.87948926 27.98318363 3.13028831 14.39932621 0 0 Z " fill="#E6542A" transform="translate(69,272)"/>
<path d="M0 0 C3.5152053 0.49274325 6.55266113 1.52422866 9.80078125 2.92578125 C11.14366211 3.50295898 11.14366211 3.50295898 12.51367188 4.09179688 C13.43728516 4.49462891 14.36089844 4.89746094 15.3125 5.3125 C16.22451172 5.70373047 17.13652344 6.09496094 18.07617188 6.49804688 C23.47800826 8.83303422 28.76248816 11.31677295 34 14 C30.3036028 15.09459733 28.74584345 14.75901226 25.25 13.0625 C24.45078125 12.68222656 23.6515625 12.30195312 22.828125 11.91015625 C21.92320312 11.45962891 21.92320312 11.45962891 21 11 C21 10.34 21 9.68 21 9 C18.36 8.67 15.72 8.34 13 8 C13 12.73117792 13.83216875 13.65617813 17 17 C19.11660427 18.31165257 19.11660427 18.31165257 21 19 C21 22 21 22 20.41015625 23.890625 C19.88230462 26.60529051 20.48996653 28.17270896 21.4375 30.75 C21.72496094 31.54921875 22.01242188 32.3484375 22.30859375 33.171875 C22.53675781 33.77515625 22.76492187 34.3784375 23 35 C24.485 34.505 24.485 34.505 26 34 C26.33 34.99 26.66 35.98 27 37 C27.66 37 28.32 37 29 37 C29.33 38.98 29.66 40.96 30 43 C25.95650831 41.69564784 24.14393525 40.41111002 21.8125 36.875 C21.22210938 35.98683594 20.63171875 35.09867188 20.0234375 34.18359375 C16.77680216 29.07547058 13.56264324 23.94832437 10.37890625 18.80078125 C8.01368004 14.99249388 5.52896294 11.27625083 2.9609375 7.6015625 C2 6 2 6 2 4 C1.34 4 0.68 4 0 4 C-0.33 3.01 -0.66 2.02 -1 1 C-0.67 0.67 -0.34 0.34 0 0 Z " fill="#F49E24" transform="translate(219,88)"/>
<path d="M0 0 C0.66 0.33 1.32 0.66 2 1 C2.44791634 24.59811876 -3.64859622 53.69185167 -18.625 72.546875 C-21 75 -21 75 -24 76 C-23.67 74.68 -23.34 73.36 -23 72 C-22.01 72 -21.02 72 -20 72 C-20.495 65.565 -20.495 65.565 -21 59 C-15 57 -15 57 -13 57 C-12.87625 56.236875 -12.7525 55.47375 -12.625 54.6875 C-12 52 -12 52 -10 49 C-9.34 49 -8.68 49 -8 49 C-6.98972272 44.68948362 -6.71950814 40.40642256 -6.5 36 C-6.2801553 31.58682121 -5.9541757 27.32559649 -5 23 C-5 22.34 -5 21.68 -5 21 C-4.34 21 -3.68 21 -3 21 C-3 17.7 -3 14.4 -3 11 C-2.34 10.67 -1.68 10.34 -1 10 C-0.53248212 7.64400765 -0.53248212 7.64400765 -0.375 4.9375 C-0.30023438 4.01839844 -0.22546875 3.09929687 -0.1484375 2.15234375 C-0.09945313 1.44207031 -0.05046875 0.73179687 0 0 Z " fill="#DB662F" transform="translate(317,215)"/>
<path d="M0 0 C2.46278593 0.89808359 3.55596062 1.96440155 5.328125 3.8828125 C8.50886524 7.23567072 11.88517227 10.17702641 15.4765625 13.08203125 C17.30527067 14.99548443 17.85042746 16.1313478 18.078125 18.7578125 C16.390625 21.0703125 16.390625 21.0703125 14.078125 22.7578125 C10.08718897 22.4860892 7.95306468 20.09307928 5.140625 17.4453125 C2.57014121 15.04169164 0.05189018 12.73761787 -2.73828125 10.58984375 C-3.45886719 9.98527344 -4.17945313 9.38070312 -4.921875 8.7578125 C-4.921875 8.0978125 -4.921875 7.4378125 -4.921875 6.7578125 C-5.581875 6.4278125 -6.241875 6.0978125 -6.921875 5.7578125 C-3.43004939 -0.432242 -3.43004939 -0.432242 0 0 Z " fill="#FBFBFA" transform="translate(132.921875,61.2421875)"/>
<path d="M0 0 C2.5 0.25 2.5 0.25 4.5 2.25 C5.1072485 6.19812667 5.1533232 10.19885247 5.3125 14.1875 C5.37630859 15.29802734 5.44011719 16.40855469 5.50585938 17.55273438 C5.55162109 18.61685547 5.59738281 19.68097656 5.64453125 20.77734375 C5.68940674 21.75437256 5.73428223 22.73140137 5.78051758 23.73803711 C5.5 26.25 5.5 26.25 4.15112305 28.07250977 C1.83711609 29.72273238 0.27465838 29.60572543 -2.5 29.25 C-5.14699616 26.60300384 -4.75749767 25.34605591 -4.765625 21.65625 C-4.76820313 20.54378906 -4.77078125 19.43132813 -4.7734375 18.28515625 C-4.76183594 16.53525391 -4.76183594 16.53525391 -4.75 14.75 C-4.75773438 13.58339844 -4.76546875 12.41679688 -4.7734375 11.21484375 C-4.77085937 10.10238281 -4.76828125 8.98992188 -4.765625 7.84375 C-4.76336914 6.81958984 -4.76111328 5.79542969 -4.75878906 4.74023438 C-4.39649237 1.25398319 -3.48734599 0.3487346 0 0 Z " fill="#FAFAFC" transform="translate(184.5,26.75)"/>
<path d="M0 0 C1.9375 0.75 1.9375 0.75 3.9375 2.75 C4.3209203 5.65755474 4.34406343 7.16230288 2.65576172 9.6027832 C0.72143263 11.43915487 -1.21393235 13.2681796 -3.1875 15.0625 C-3.85265625 15.70767578 -4.5178125 16.35285156 -5.203125 17.01757812 C-10.15280236 21.60330862 -10.15280236 21.60330862 -14.4296875 22.29296875 C-17.0625 21.75 -17.0625 21.75 -19.0625 19.75 C-19.10222343 16.00937657 -17.68816913 14.09868307 -15.2265625 11.48828125 C-14.05703405 10.33595175 -12.87694141 9.19426375 -11.6875 8.0625 C-11.09710938 7.48177734 -10.50671875 6.90105469 -9.8984375 6.30273438 C-3.04874506 -0.36954486 -3.04874506 -0.36954486 0 0 Z " fill="#FAFAF9" transform="translate(240.0625,61.25)"/>
<path d="M0 0 C7.59043493 3.12547321 13.30742836 8.18741541 19.37597656 13.56835938 C20.87774597 14.89222826 22.40279121 16.18956694 23.9296875 17.484375 C29.06174643 21.93312864 33.56158395 26.60840579 37.75 31.9375 C38.19303467 32.49356934 38.63606934 33.04963867 39.0925293 33.62255859 C40.296875 35.21484375 40.296875 35.21484375 42 38 C41.67 38.99 41.34 39.98 41 41 C39.02 41 37.04 41 35 41 C35.66 40.67 36.32 40.34 37 40 C36.01 37.69 35.02 35.38 34 33 C32.35 33 30.7 33 29 33 C27.58622659 30.36095629 26.62759865 27.92879371 26 25 C25.21625 24.9175 24.4325 24.835 23.625 24.75 C21 24 21 24 19.6875 22.125 C19 20 19 20 19 17 C17.02 16.34 15.04 15.68 13 15 C12.67 15.66 12.34 16.32 12 17 C10.03177114 15.03177114 10.33751619 11.65191291 10 9 C9.21625 8.896875 8.4325 8.79375 7.625 8.6875 C5 8 5 8 3 5 C2.46375 4.484375 1.9275 3.96875 1.375 3.4375 C0 2 0 2 0 0 Z " fill="#EE9D31" transform="translate(253,103)"/>
<path d="M0 0 C2.6328125 0.3203125 2.6328125 0.3203125 4.328125 2.078125 C4.79992187 2.85929687 5.27171875 3.64046875 5.7578125 4.4453125 C6.25796875 5.26773438 6.758125 6.09015625 7.2734375 6.9375 C7.72203125 7.72382812 8.170625 8.51015625 8.6328125 9.3203125 C9.2515625 10.3928125 9.8703125 11.4653125 10.5078125 12.5703125 C11.68112145 15.43840105 12.05797517 17.2591413 11.6328125 20.3203125 C9.6328125 22.3203125 9.6328125 22.3203125 7.19921875 22.703125 C4.6328125 22.3203125 4.6328125 22.3203125 2.97265625 20.5625 C2.50988281 19.78132813 2.04710937 19.00015625 1.5703125 18.1953125 C-0.13293202 15.368369 -1.81967377 12.71805711 -3.8671875 10.1328125 C-5.3671875 7.3203125 -5.3671875 7.3203125 -4.6796875 4.0078125 C-2.91501787 0.39444136 -2.91501787 0.39444136 0 0 Z " fill="#FBFBFB" transform="translate(151.3671875,49.6796875)"/>
<path d="M0 0 C2.4375 1 2.4375 1 3.859375 3.078125 C4.74890563 7.57386086 2.55792598 10.063318 0.125 13.75 C-0.30490234 14.43449219 -0.73480469 15.11898437 -1.17773438 15.82421875 C-4.26252948 20.70002948 -4.26252948 20.70002948 -5.5625 22 C-7.56208364 22.04080783 -9.56295254 22.04254356 -11.5625 22 C-12.96294335 17.89203283 -13.01434864 15.98770294 -11.17578125 11.96875 C-4.24726942 0 -4.24726942 0 0 0 Z " fill="#FBFBF9" transform="translate(221.5625,49)"/>
<path d="M0 0 C0.33 0.66 0.66 1.32 1 2 C1.99 2 2.98 2 4 2 C4 3.32 4 4.64 4 6 C1.17195988 7.61363045 -1.66333102 9.21409483 -4.5 10.8125 C-5.29148437 11.26431641 -6.08296875 11.71613281 -6.8984375 12.18164062 C-14.58857378 16.49946304 -21.05378192 19.47926168 -30 19 C-29.38129108 15.59346146 -28.90699416 14.90483123 -26.3125 12.25 C-20.90862431 8.53767363 -14.25445471 9.60963875 -8 10 C-8 8.68 -8 7.36 -8 6 C-7.01 6 -6.02 6 -5 6 C-5 5.34 -5 4.68 -5 4 C-3.68 4 -2.36 4 -1 4 C-0.67 2.68 -0.34 1.36 0 0 Z " fill="#DA562A" transform="translate(289,286)"/>
<path d="M0 0 C-6.09493764 6.28540444 -12.19274985 11.93372388 -20 16 C-19.67 13.69 -19.34 11.38 -19 9 C-24.94 8.67 -30.88 8.34 -37 8 C-37 7.67 -37 7.34 -37 7 C-35.87464844 6.84144531 -34.74929687 6.68289063 -33.58984375 6.51953125 C-24.32018624 5.13527322 -15.81020629 3.21563376 -7.0390625 -0.109375 C-4.06766456 -0.98017028 -2.81855117 -1.13852806 0 0 Z " fill="#DE5833" transform="translate(279,313)"/>
<path d="M0 0 C0.33 0 0.66 0 1 0 C0.67 3.3 0.34 6.6 0 10 C-0.66 10 -1.32 10 -2 10 C-2.10957031 10.6290625 -2.21914062 11.258125 -2.33203125 11.90625 C-3.10911205 16.10122278 -3.91330665 20.05487081 -5.5625 24 C-7.40638586 28.54452677 -7.71121452 33.14043738 -8 38 C-8.66 38 -9.32 38 -10 38 C-10 49.88 -10 61.76 -10 74 C-9.34 74.33 -8.68 74.66 -8 75 C-8.33 77.97 -8.66 80.94 -9 84 C-9.33 84 -9.66 84 -10 84 C-11.99101753 75.25980913 -12.3605232 66.75102013 -12.3125 57.8125 C-12.31100952 57.12746399 -12.30951904 56.44242798 -12.3079834 55.7366333 C-12.26792892 45.50271327 -11.75236765 35.89205639 -9 26 C-8.54753906 24.32744141 -8.54753906 24.32744141 -8.0859375 22.62109375 C-5.84727569 14.91318092 -2.97502506 7.44975538 0 0 Z " fill="#DC8444" transform="translate(69,160)"/>
<path d="M0 0 C-1.57308773 4.265176 -3.67910195 8.15888747 -5.875 12.125 C-9.2068867 18.23521628 -11.89790464 24.34797456 -14 31 C-16.17280453 22.34560907 -16.17280453 22.34560907 -15 20 C-14.95752718 17.32421248 -14.95235885 14.67319787 -15 12 C-15 11.01 -15 10.02 -15 9 C-14.34 9 -13.68 9 -13 9 C-13 8.34 -13 7.68 -13 7 C-11.35 7.33 -9.7 7.66 -8 8 C-7.01 5.69 -6.02 3.38 -5 1 C-5.66 0.67 -6.32 0.34 -7 0 C-4.3333581 -1.33332095 -2.83319697 -0.67102033 0 0 Z " fill="#E79034" transform="translate(103,153)"/>
<path d="M0 0 C0 3.16820458 -0.62797454 4.25594908 -2 7 C-2 7.99 -2 8.98 -2 10 C-2.78375 10.45375 -3.5675 10.9075 -4.375 11.375 C-7.44960012 13.27832388 -7.9906414 14.60488472 -9 18 C-9.66 18 -10.32 18 -11 18 C-11 18.66 -11 19.32 -11 20 C-11.99 20.66 -12.98 21.32 -14 22 C-14.33 22.99 -14.66 23.98 -15 25 C-15.598125 25.556875 -16.19625 26.11375 -16.8125 26.6875 C-19.71619001 29.75711515 -21.25857494 33.18368551 -23 37 C-23.66 36.67 -24.32 36.34 -25 36 C-19.73728347 21.96608924 -10.62711583 10.37881873 0 0 Z " fill="#EA9B30" transform="translate(95,124)"/>
<path d="M0 0 C1.03898438 0.13277344 2.07796875 0.26554687 3.1484375 0.40234375 C4.55728301 0.58079751 5.96613768 0.75917901 7.375 0.9375 C8.05433594 1.02451172 8.73367187 1.11152344 9.43359375 1.20117188 C11.62130871 1.47719199 13.81037915 1.73955532 16 2 C17.11689209 2.14223999 17.11689209 2.14223999 18.25634766 2.28735352 C25.71170892 3.15338033 33.12759228 3.11268862 40.625 3.0625 C41.91535156 3.05798828 43.20570313 3.05347656 44.53515625 3.04882812 C47.69015375 3.03714295 50.84505137 3.02076044 54 3 C54 2.01 54 1.02 54 0 C59.61 0 65.22 0 71 0 C52.40032966 9.29983517 22.54710107 7.62915196 3 2 C2.01 1.34 1.02 0.68 0 0 Z " fill="#C04830" transform="translate(154,344)"/>
<path d="M0 0 C4.06460417 0.51997639 7.56344423 1.95576181 11.3125 3.5625 C12.38113281 4.01753906 13.44976562 4.47257812 14.55078125 4.94140625 C15.76314453 5.46541016 15.76314453 5.46541016 17 6 C17 6.33 17 6.66 17 7 C14.69 7 12.38 7 10 7 C10 9.64 10 12.28 10 15 C10.66 15 11.32 15 12 15 C12 16.65 12 18.3 12 20 C2 8.07692308 2 8.07692308 2 4 C1.34 4 0.68 4 0 4 C-0.33 3.01 -0.66 2.02 -1 1 C-0.67 0.67 -0.34 0.34 0 0 Z " fill="#EAA43A" transform="translate(219,88)"/>
<path d="M0 0 C0.33 0.99 0.66 1.98 1 3 C-0.96466413 4.06775224 -2.96855359 5.06553465 -5 6 C-5.66 5.67 -6.32 5.34 -7 5 C-6.67 7.31 -6.34 9.62 -6 12 C-8.89234315 12.82638376 -10.88742431 13 -14 13 C-14.77321882 15.98241547 -15.41196203 18.97580475 -16 22 C-17 19 -17 19 -17 17 C-17.66 16.67 -18.32 16.34 -19 16 C-17.42852706 12.14274823 -15.02395896 9.8223617 -12 7 C-11.43667969 6.46632813 -10.87335938 5.93265625 -10.29296875 5.3828125 C-7.00027335 2.38423586 -4.63846132 0.28111887 0 0 Z " fill="#F79D28" transform="translate(111,115)"/>
<path d="M0 0 C0.66 0 1.32 0 2 0 C1.85795259 1.58367747 1.71119847 3.16693318 1.5625 4.75 C1.48128906 5.63171875 1.40007812 6.5134375 1.31640625 7.421875 C1.03486592 9.71590734 0.74405173 11.81219226 0 14 C-0.99 14.495 -0.99 14.495 -2 15 C-2.99 16.485 -2.99 16.485 -4 18 C-4.66 18.66 -5.32 19.32 -6 20 C-6.2475 20.94875 -6.495 21.8975 -6.75 22.875 C-8.33571231 26.83928078 -10.3507927 27.93740457 -14 30 C-12.01098368 24.54902013 -9.14566116 19.57747935 -6.36523438 14.50195312 C-3.81448221 9.76969246 -1.78292329 5.07359199 0 0 Z " fill="#E06533" transform="translate(287,249)"/>
<path d="M0 0 C0.33 0 0.66 0 1 0 C1.01981934 0.71655762 1.03963867 1.43311523 1.06005859 2.17138672 C1.15509519 5.4063063 1.26486019 8.64056094 1.375 11.875 C1.4059375 13.00292969 1.436875 14.13085938 1.46875 15.29296875 C1.50742187 16.36933594 1.54609375 17.44570312 1.5859375 18.5546875 C1.6173584 19.54968262 1.6487793 20.54467773 1.68115234 21.56982422 C1.77247083 24.17854517 1.77247083 24.17854517 4 26 C4.3125 29 4.3125 29 4 32 C3.01 32.66 2.02 33.32 1 34 C-0.07136051 36.30144109 -1.07989717 38.6340213 -2 41 C-2.66 41 -3.32 41 -4 41 C-3.79503906 39.88367188 -3.59007812 38.76734375 -3.37890625 37.6171875 C-1.18530403 25.08289838 -0.32697441 12.71225919 0 0 Z " fill="#DC7C44" transform="translate(292,206)"/>
<path d="M0 0 C0 0.66 0 1.32 0 2 C-0.66 2 -1.32 2 -2 2 C-2 2.99 -2 3.98 -2 5 C-3.65 5 -5.3 5 -7 5 C-7 5.66 -7 6.32 -7 7 C-8.32 7 -9.64 7 -11 7 C-11.33 7.66 -11.66 8.32 -12 9 C-13.65 9 -15.3 9 -17 9 C-16.76346394 5.80676321 -15.72817004 4.69332005 -13.5625 2.25 C-9.47086992 -1.02130327 -4.9843182 -0.44326941 0 0 Z " fill="#ED5524" transform="translate(276,296)"/>
<path d="M0 0 C2.33053574 3.49580362 3.35243167 7.00970016 4.5 11 C4.72067139 11.7645752 4.94134277 12.52915039 5.16870117 13.31689453 C7.90759686 22.99330588 9.35118962 31.91305378 9 42 C8.67 42 8.34 42 8 42 C7.89042969 41.11957031 7.78085937 40.23914063 7.66796875 39.33203125 C7.43013672 37.58986328 7.43013672 37.58986328 7.1875 35.8125 C6.96126953 34.08966797 6.96126953 34.08966797 6.73046875 32.33203125 C6.18624589 28.99171762 6.18624589 28.99171762 4.42578125 26.40234375 C2.72420109 23.53529772 2.76935754 22.03665509 3 18.75 C3.15514934 13.95976424 2.4432863 10.39888042 0.65625 5.97265625 C0 4 0 4 0 0 Z " fill="#D4803C" transform="translate(309,169)"/>
<path d="M0 0 C2.25 2.875 2.25 2.875 2.5625 5.6875 C2.4078125 6.7703125 2.4078125 6.7703125 2.25 7.875 C3.24 7.875 4.23 7.875 5.25 7.875 C9.46833829 10.81505396 10.05712005 14.25788301 10.953125 19.046875 C11.05109375 19.65015625 11.1490625 20.2534375 11.25 20.875 C7.86742991 17.67252044 5.04747493 14.14627358 2.25 10.4375 C1.39629318 9.31345269 0.54213251 8.18974991 -0.3125 7.06640625 C-0.71984375 6.53031738 -1.1271875 5.99422852 -1.546875 5.44189453 C-3.24815667 3.22622372 -4.99510131 1.04831203 -6.75 -1.125 C-3.50285925 -2.68843814 -2.93134152 -2.26512754 0 0 Z " fill="#E4973E" transform="translate(266.75,141.125)"/>
<path d="M0 0 C3.11558244 2.94830284 5.59037969 6.06152037 8.0625 9.5625 C10.64607382 13.29163704 10.64607382 13.29163704 13.734375 16.578125 C16.1120755 19.24936878 15.16717567 22.60076139 15 26 C14.67 26 14.34 26 14 26 C14 23.69 14 21.38 14 19 C12.68 19.33 11.36 19.66 10 20 C5.57142857 12.71428571 5.57142857 12.71428571 5 8 C3.68 7.67 2.36 7.34 1 7 C0.67 4.69 0.34 2.38 0 0 Z " fill="#DB5D35" transform="translate(98,273)"/>
<path d="M0 0 C0.33 0.99 0.66 1.98 1 3 C0.38125 3.2475 -0.2375 3.495 -0.875 3.75 C-3.38710296 5.22770762 -3.76107344 6.43955177 -5 9 C-7.88211302 9.96070434 -9.69850044 10.10581883 -12.6875 10.0625 C-13.89986328 10.04896484 -13.89986328 10.04896484 -15.13671875 10.03515625 C-16.05904297 10.01775391 -16.05904297 10.01775391 -17 10 C-16.67 9.01 -16.34 8.02 -16 7 C-15.01 7 -14.02 7 -13 7 C-13 6.34 -13 5.68 -13 5 C-9.38026598 3.68373308 -6.90432869 3 -3 3 C-3 2.34 -3 1.68 -3 1 C-2.01 0.67 -1.02 0.34 0 0 Z " fill="#F89F23" transform="translate(144,94)"/>
<path d="M0 0 C-1.66666667 1.66666667 -3.33333333 3.33333333 -5 5 C-5.721875 5.763125 -6.44375 6.52625 -7.1875 7.3125 C-9 9 -9 9 -11 9 C-11 7.68 -11 6.36 -11 5 C-13.64 5 -16.28 5 -19 5 C-15.9040842 3.3863269 -12.76272828 2.05395018 -9.5 0.8125 C-8.5615625 0.44769531 -7.623125 0.08289063 -6.65625 -0.29296875 C-3.91128353 -1.02361424 -2.6236444 -0.97149097 0 0 Z " fill="#D35B38" transform="translate(279,313)"/>
<path d="M0 0 C2 1 2 1 2.8515625 3.06640625 C3.10679687 3.89011719 3.36203125 4.71382813 3.625 5.5625 C3.88539063 6.38878906 4.14578125 7.21507813 4.4140625 8.06640625 C4.60742188 8.70449219 4.80078125 9.34257813 5 10 C5.99 9.67 6.98 9.34 8 9 C8.33 9.99 8.66 10.98 9 12 C9.66 12 10.32 12 11 12 C11.33 13.98 11.66 15.96 12 18 C7.62091626 16.65085028 5.83773412 14.97251384 3.3125 11.1875 C2.73113281 10.33542969 2.14976562 9.48335937 1.55078125 8.60546875 C0.07323668 6.12304499 -1.01247446 3.70961441 -2 1 C-1.34 0.67 -0.68 0.34 0 0 Z " fill="#EDA73F" transform="translate(237,113)"/>
<path d="M0 0 C0.33 0 0.66 0 1 0 C1.0501123 0.60884033 1.10022461 1.21768066 1.15185547 1.8449707 C2.26404621 16.4950422 2.26404621 16.4950422 4.6328125 30.9765625 C5 33 5 33 5 37 C4.34 37 3.68 37 3 37 C0.51256424 33.16773108 0.55329798 29.11096578 0.375 24.6875 C0.33705322 23.89875488 0.29910645 23.11000977 0.26000977 22.29736328 C-0.06881033 14.8634939 -0.09875691 7.43968694 0 0 Z " fill="#D77039" transform="translate(82,211)"/>
<path d="M0 0 C2.7839183 1.39195915 2.97898997 3.15575779 4 6 C5.32 6 6.64 6 8 6 C8 7.65 8 9.3 8 11 C7.01 11.495 7.01 11.495 6 12 C6 12.66 6 13.32 6 14 C6.99 14.66 7.98 15.32 9 16 C8.67 17.98 8.34 19.96 8 22 C5.18916193 19.18916193 4.22856114 15.78414855 2.875 12.125 C2.59785156 11.40441406 2.32070313 10.68382812 2.03515625 9.94140625 C1.77347656 9.24144531 1.51179688 8.54148437 1.2421875 7.8203125 C0.88423096 6.86535889 0.88423096 6.86535889 0.51904297 5.89111328 C0 4 0 4 0 0 Z " fill="#DE6935" transform="translate(61,250)"/>
<path d="M0 0 C-3.96 5.94 -3.96 5.94 -8 12 C-8.33 10.68 -8.66 9.36 -9 8 C-8.34 7.01 -7.68 6.02 -7 5 C-6.34 5 -5.68 5 -5 5 C-5.33 4.34 -5.66 3.68 -6 3 C-6.99 3 -7.98 3 -9 3 C-9 3.66 -9 4.32 -9 5 C-12.50776784 6.60355101 -15.14354879 7.22036864 -19 7 C-15.85488067 4.42327573 -12.67836053 2.82607507 -8.9375 1.25 C-7.89464844 0.80140625 -6.85179687 0.3528125 -5.77734375 -0.109375 C-3 -1 -3 -1 0 0 Z " fill="#D3A44C" transform="translate(150,92)"/>
<path d="M0 0 C0.66 0.33 1.32 0.66 2 1 C1.01 2.32 0.02 3.64 -1 5 C0.65 5 2.3 5 4 5 C3.67 3.68 3.34 2.36 3 1 C3.66 1 4.32 1 5 1 C5 1.99 5 2.98 5 4 C8.3 3.67 11.6 3.34 15 3 C8.78514553 7.14323631 1.27798632 7.43327156 -6 8 C-6 5 -6 5 -4.6875 3.61328125 C-3.125 2.40885417 -1.5625 1.20442708 0 0 Z " fill="#CF5635" transform="translate(249,302)"/>
<path d="M0 0 C0.99 0.33 1.98 0.66 3 1 C2.835 2.134375 2.67 3.26875 2.5 4.4375 C2.14367797 6.71132519 2.14367797 6.71132519 2 9 C0.35 9 -1.3 9 -3 9 C-3 8.01 -3 7.02 -3 6 C-3.33 7.32 -3.66 8.64 -4 10 C-5.65 10 -7.3 10 -9 10 C-7.63491499 6.88271632 -6.13080302 4.91336262 -3.5625 2.6875 C-2.96566406 2.15511719 -2.36882812 1.62273437 -1.75390625 1.07421875 C-1.17511719 0.71972656 -0.59632813 0.36523438 0 0 Z " fill="#EF592B" transform="translate(257,297)"/>
<path d="M0 0 C1.24546405 2.49092811 0.7767578 3.41080733 0 6 C-1.89575251 6.02721176 -3.79161979 6.04649136 -5.6875 6.0625 C-7.27111328 6.07990234 -7.27111328 6.07990234 -8.88671875 6.09765625 C-11.72410262 6.00865425 -14.2438919 5.64939838 -17 5 C-17 4.34 -17 3.68 -17 3 C-11.39 2.01 -5.78 1.02 0 0 Z " fill="#DF5433" transform="translate(214,319)"/>
<path d="M0 0 C7.59 0.33 15.18 0.66 23 1 C23 1.66 23 2.32 23 3 C18.05 3.33 13.1 3.66 8 4 C8 3.34 8 2.68 8 2 C6.35 2 4.7 2 3 2 C3 2.66 3 3.32 3 4 C2.01 4.33 1.02 4.66 0 5 C0 3.35 0 1.7 0 0 Z " fill="#D75A30" transform="translate(173,322)"/>
<path d="M0 0 C0.33 0.99 0.66 1.98 1 3 C1.66 3.66 2.32 4.32 3 5 C-2.03733166 6.5111995 -6.88171027 5.64599773 -12 5 C-12 4.01 -12 3.02 -12 2 C-10.56342755 1.66269158 -9.12569907 1.33030409 -7.6875 1 C-6.88699219 0.814375 -6.08648437 0.62875 -5.26171875 0.4375 C-3 0 -3 0 0 0 Z " fill="#F5F6F6" transform="translate(84,352)"/>
<path d="M0 0 C3.18678372 2.92352767 5.21723295 5.81612841 7.25 9.625 C7.77078125 10.58664063 8.2915625 11.54828125 8.828125 12.5390625 C10 15 10 15 10 17 C7.07120629 16.37240135 4.63904371 15.41377341 2 14 C2.66 11.69 3.32 9.38 4 7 C3.34 7 2.68 7 2 7 C1.34 4.69 0.68 2.38 0 0 Z " fill="#E79432" transform="translate(295,143)"/>
<path d="M0 0 C1.30211046 3.90633137 0.47812346 6.19538173 -0.4375 10.1875 C-0.72496094 11.45980469 -1.01242188 12.73210937 -1.30859375 14.04296875 C-1.53675781 15.01878906 -1.76492187 15.99460938 -2 17 C-2.33 17 -2.66 17 -3 17 C-4.20465156 12.34201396 -5.28547412 7.76350585 -6 3 C-5.195625 2.87625 -4.39125 2.7525 -3.5625 2.625 C-2.716875 2.41875 -1.87125 2.2125 -1 2 C-0.67 1.34 -0.34 0.68 0 0 Z " fill="#E18335" transform="translate(87,184)"/>
<path d="M0 0 C0.763125 0.20625 1.52625 0.4125 2.3125 0.625 C-0.24216059 3.6497891 -3.05766273 4.83120611 -6.6875 6.3125 C-8.2653125 6.96798828 -8.2653125 6.96798828 -9.875 7.63671875 C-12.6875 8.625 -12.6875 8.625 -15.6875 8.625 C-15.3575 7.305 -15.0275 5.985 -14.6875 4.625 C-14.6875 5.285 -14.6875 5.945 -14.6875 6.625 C-13.3675 6.625 -12.0475 6.625 -10.6875 6.625 C-10.6875 5.965 -10.6875 5.305 -10.6875 4.625 C-9.0375 4.625 -7.3875 4.625 -5.6875 4.625 C-5.6875 3.635 -5.6875 2.645 -5.6875 1.625 C-2.6875 -0.375 -2.6875 -0.375 0 0 Z " fill="#D9542D" transform="translate(279.6875,296.375)"/>
<path d="M0 0 C-0.57642484 3.89086767 -2.28168187 6.20617303 -5 9 C-7.5625 9.625 -7.5625 9.625 -10 10 C-11.79385992 11.4579186 -11.79385992 11.4579186 -13 13 C-13.66 12.67 -14.32 12.34 -15 12 C-12.88046983 9.99390948 -10.75486559 7.99506397 -8.625 6 C-8.02171875 5.42765625 -7.4184375 4.8553125 -6.796875 4.265625 C-6.21679688 3.72421875 -5.63671875 3.1828125 -5.0390625 2.625 C-4.50490723 2.12226563 -3.97075195 1.61953125 -3.42041016 1.1015625 C-2 0 -2 0 0 0 Z " fill="#DC5E38" transform="translate(266,289)"/>
<path d="M0 0 C0.93423645 3.01031744 1.04449911 3.86650268 0 7 C-0.598125 7.556875 -1.19625 8.11375 -1.8125 8.6875 C-4.71619001 11.75711515 -6.25857494 15.18368551 -8 19 C-8.66 18.67 -9.32 18.34 -10 18 C-8.5216233 13.98832453 -6.60821705 10.42979591 -4.4375 6.75 C-3.81746094 5.69296875 -3.19742188 4.6359375 -2.55859375 3.546875 C-1 1 -1 1 0 0 Z " fill="#E49542" transform="translate(80,142)"/>
<path d="M0 0 C2.56695636 0.39491636 4.67123994 0.83561997 7 2 C7 2.66 7 3.32 7 4 C7.66 4 8.32 4 9 4 C8.67 5.65 8.34 7.3 8 9 C7.34 9 6.68 9 6 9 C6 8.01 6 7.02 6 6 C4.68 6 3.36 6 2 6 C2 5.34 2 4.68 2 4 C1.34 4 0.68 4 0 4 C-0.33 3.01 -0.66 2.02 -1 1 C-0.67 0.67 -0.34 0.34 0 0 Z " fill="#F7A328" transform="translate(219,88)"/>
<path d="M0 0 C0.33 0 0.66 0 1 0 C1.1875 2.875 1.1875 2.875 1 6 C0.01 6.66 -0.98 7.32 -2 8 C-3.07136051 10.30144109 -4.07989717 12.6340213 -5 15 C-5.66 15 -6.32 15 -7 15 C-6.34 11.37 -5.68 7.74 -5 4 C-4.34 4 -3.68 4 -3 4 C-1.9739266 2.68662604 -0.97272675 1.35335895 0 0 Z " fill="#E37033" transform="translate(295,232)"/>
<path d="M0 0 C0.66 0 1.32 0 2 0 C2.32613281 0.75925781 2.65226562 1.51851563 2.98828125 2.30078125 C3.42527344 3.29464844 3.86226563 4.28851563 4.3125 5.3125 C4.74175781 6.29863281 5.17101562 7.28476562 5.61328125 8.30078125 C6.89204142 10.78986091 8.04244963 12.08595075 10 14 C10.74386068 16.30988315 11.42190703 18.64315944 12 21 C5.89187383 15.24884224 1.78185795 8.19654655 0 0 Z " fill="#D16332" transform="translate(69,272)"/>
<path d="M0 0 C0 0.66 0 1.32 0 2 C-1.63183107 3.05589069 -3.30792999 4.0436126 -5 5 C-6.423125 6.0209375 -6.423125 6.0209375 -7.875 7.0625 C-11.32071746 9.19884482 -14.08794281 10.06110627 -18 11 C-13.90793979 6.20241216 -6.54758015 0 0 0 Z " fill="#ECA543" transform="translate(131,99)"/>
<path d="M0 0 C2.10353495 -0.0810206 4.20795952 -0.13919907 6.3125 -0.1875 C7.48425781 -0.22230469 8.65601563 -0.25710938 9.86328125 -0.29296875 C13 0 13 0 14.73046875 1.38671875 C15.14941406 1.91910156 15.56835938 2.45148438 16 3 C16.99 3.66 17.98 4.32 19 5 C17.125 5.625 17.125 5.625 15 6 C14.34 5.34 13.68 4.68 13 4 C9.90737233 2.45368616 6.6329109 2.60939284 3.21484375 2.37890625 C2.48394531 2.25386719 1.75304687 2.12882812 1 2 C0.67 1.34 0.34 0.68 0 0 Z " fill="#D75731" transform="translate(229,321)"/>
<path d="M0 0 C0.99 0.33 1.98 0.66 3 1 C3.79953138 4.28696233 4.09658936 5.71023192 3 9 C2.64763503 10.99673484 2.31165441 12.99650739 2 15 C0 14 0 14 -0.6875 12 C-1.11389971 7.90656277 -0.57491832 4.05980784 0 0 Z " fill="#EA7025" transform="translate(60,235)"/>
<path d="M0 0 C1.76462683 3.08809695 2 4.23312136 2 8 C1.34 8 0.68 8 0 8 C-0.33 8.99 -0.66 9.98 -1 11 C-2.32 10.67 -3.64 10.34 -5 10 C-3.84414715 6.08788267 -2.64465038 3.1254959 0 0 Z " fill="#F49226" transform="translate(78,149)"/>
<path d="M0 0 C6.19323388 2.62021433 10.51371361 7.37012053 14.703125 12.44921875 C16.06416642 14.12337369 16.06416642 14.12337369 18 16 C14.58987203 15.41764645 12.95718539 14.32513888 10.546875 11.875 C9.928125 11.25109375 9.309375 10.6271875 8.671875 9.984375 C8.03765625 9.32953125 7.4034375 8.6746875 6.75 8 C6.1003125 7.34515625 5.450625 6.6903125 4.78125 6.015625 C0 1.15401786 0 1.15401786 0 0 Z " fill="#C54E33" transform="translate(89,304)"/>
<path d="M0 0 C2.41601303 2.41601303 3.1721185 4.58063324 4.4375 7.75 C5.79984662 11.1215047 7.14729407 14.42436505 8.875 17.625 C9.24625 18.40875 9.6175 19.1925 10 20 C9.67 20.66 9.34 21.32 9 22 C4.05168426 15.37021774 0 8.49737874 0 0 Z " fill="#DA673E" transform="translate(88,251)"/>
<path d="M0 0 C-0.33 2.31 -0.66 4.62 -1 7 C-1.61875 7.144375 -2.2375 7.28875 -2.875 7.4375 C-5.03258322 7.93152225 -5.03258322 7.93152225 -7 9 C-7.66 8.34 -8.32 7.68 -9 7 C-8.01 6.67 -7.02 6.34 -6 6 C-5.65657551 4.66923011 -5.32380126 3.33568021 -5 2 C-2 0 -2 0 0 0 Z " fill="#EE6524" transform="translate(296,241)"/>
<path d="M0 0 C1.98 0.99 1.98 0.99 4 2 C3.67 4.64 3.34 7.28 3 10 C3.66 10.33 4.32 10.66 5 11 C4.67 13.97 4.34 16.94 4 20 C3.67 20 3.34 20 3 20 C2.49685437 17.22970414 1.99736162 14.4588348 1.5 11.6875 C1.35691406 10.90181641 1.21382813 10.11613281 1.06640625 9.30664062 C0.93105469 8.54931641 0.79570312 7.79199219 0.65625 7.01171875 C0.53056641 6.31522217 0.40488281 5.61872559 0.27539062 4.90112305 C0 3 0 3 0 0 Z " fill="#DA8541" transform="translate(288,186)"/>
<path d="M0 0 C0.99 0 1.98 0 3 0 C3 1.32 3 2.64 3 4 C3.66 4 4.32 4 5 4 C5 5.32 5 6.64 5 8 C5.99 8.33 6.98 8.66 8 9 C8 11.64 8 14.28 8 17 C5.83424381 13.75136571 4.37647589 10.39377143 2.875 6.8125 C2.59785156 6.15830078 2.32070313 5.50410156 2.03515625 4.83007812 C1.35402955 3.22120988 0.67664597 1.61075785 0 0 Z " fill="#DC8E44" transform="translate(278,163)"/>
<path d="M0 0 C5.37722282 2.50318993 9.59391956 5.03452761 14 9 C13.01 9.495 13.01 9.495 12 10 C11.01 9.34 10.02 8.68 9 8 C6.37468476 7.83286431 6.37468476 7.83286431 4 8 C3.71125 7.195625 3.4225 6.39125 3.125 5.5625 C2.26737432 2.8673532 2.26737432 2.8673532 0 2 C0 1.34 0 0.68 0 0 Z " fill="#E9A640" transform="translate(253,103)"/>
<path d="M0 0 C1.61949011 2.57213134 2.04408751 3.67669159 1.625 6.75 C1.41875 7.4925 1.2125 8.235 1 9 C-1.97 8.505 -1.97 8.505 -5 8 C-3.8141763 4.62496331 -2.72426311 2.35277269 0 0 Z " fill="#F26229" transform="translate(285,263)"/>
<path d="M0 0 C2.04912029 2.04912029 2.60188499 3.20941909 3.5625 5.875 C3.81128906 6.55304688 4.06007813 7.23109375 4.31640625 7.9296875 C4.97936586 9.93750802 5.5156191 11.94253445 6 14 C4.02 13.34 2.04 12.68 0 12 C0.66 11.67 1.32 11.34 2 11 C1.505 9.948125 1.505 9.948125 1 8.875 C-0.09044562 5.73996884 -0.15322643 3.29436818 0 0 Z " fill="#F5672A" transform="translate(88,255)"/>
<path d="M0 0 C1.32 0 2.64 0 4 0 C4.33 1.98 4.66 3.96 5 6 C4.01 6.33 3.02 6.66 2 7 C0.68 5.68 -0.64 4.36 -2 3 C-1.34 2.01 -0.68 1.02 0 0 Z " fill="#F69D26" transform="translate(274,121)"/>
<path d="M0 0 C1.18422862 4.01081808 0.83883178 6.16243803 -1 10 C-4.125 12.375 -4.125 12.375 -7 14 C-5.23570801 9.02790438 -2.6060834 4.56561939 0 0 Z " fill="#DC6A40" transform="translate(280,265)"/>
<path d="M0 0 C0 4.13781054 -1.71509607 5.20919996 -4.5 8.1875 C-5.3353125 9.08855469 -6.170625 9.98960937 -7.03125 10.91796875 C-7.6809375 11.60503906 -8.330625 12.29210937 -9 13 C-9.33 11.68 -9.66 10.36 -10 9 C-9.34 9 -8.68 9 -8 9 C-7.67 7.68 -7.34 6.36 -7 5 C-5.68 4.67 -4.36 4.34 -3 4 C-3 3.34 -3 2.68 -3 2 C-2.01 1.34 -1.02 0.68 0 0 Z " fill="#E79D44" transform="translate(114,139)"/>
<path d="M0 0 C4.23322844 0.62045463 7.52290295 2.10523559 11.3125 4.0625 C12.38113281 4.61035156 13.44976562 5.15820312 14.55078125 5.72265625 C15.35902344 6.14417969 16.16726562 6.56570312 17 7 C14.44855176 7.93045933 13.25993522 8.08564091 10.640625 7.22265625 C9.85171875 6.83980469 9.0628125 6.45695312 8.25 6.0625 C7.45078125 5.68222656 6.6515625 5.30195312 5.828125 4.91015625 C5.22484375 4.60980469 4.6215625 4.30945313 4 4 C4 3.34 4 2.68 4 2 C2.68 1.67 1.36 1.34 0 1 C0 0.67 0 0.34 0 0 Z " fill="#E89F44" transform="translate(236,95)"/>
<path d="M0 0 C0.99 0 1.98 0 3 0 C2 4 2 4 1 8 C0.34 8 -0.32 8 -1 8 C-1.33 9.32 -1.66 10.64 -2 12 C-2 11.34 -2 10.68 -2 10 C-2.66 9.67 -3.32 9.34 -4 9 C-3.71125 8.443125 -3.4225 7.88625 -3.125 7.3125 C-1.9586747 4.91505355 -0.9660119 2.48403061 0 0 Z " fill="#F06622" transform="translate(308,256)"/>
<path d="M0 0 C2.475 0.99 2.475 0.99 5 2 C4.42415568 4.38564077 3.77772405 6.66682784 3 9 C0.46447088 7.73223544 0.15080425 6.53176935 -1 4 C-1.33 3.34 -1.66 2.68 -2 2 C-1.34 2 -0.68 2 0 2 C0 1.34 0 0.68 0 0 Z " fill="#F39024" transform="translate(90,160)"/>
<path d="M0 0 C1.32 0 2.64 0 4 0 C4.66 1.65 5.32 3.3 6 5 C5 6 5 6 1.9375 6.0625 C0.4834375 6.0315625 0.4834375 6.0315625 -1 6 C-0.34 5.67 0.32 5.34 1 5 C0.67 3.35 0.34 1.7 0 0 Z " fill="#F1932C" transform="translate(289,138)"/>
<path d="M0 0 C0.33 0.66 0.66 1.32 1 2 C1.99 2 2.98 2 4 2 C4 2.99 4 3.98 4 5 C2.02 5 0.04 5 -2 5 C-2.33 5.99 -2.66 6.98 -3 8 C-3.66 6.68 -4.32 5.36 -5 4 C-3.68 4 -2.36 4 -1 4 C-0.67 2.68 -0.34 1.36 0 0 Z " fill="#EE5925" transform="translate(289,286)"/>
<path d="M0 0 C0.66 0 1.32 0 2 0 C2.36923077 4.55384615 2.36923077 4.55384615 0.5 6.8125 C0.005 7.204375 -0.49 7.59625 -1 8 C-1.99 7.67 -2.98 7.34 -4 7 C-3.67 6.01 -3.34 5.02 -3 4 C-2.34 4 -1.68 4 -1 4 C-0.67 2.68 -0.34 1.36 0 0 Z " fill="#F26022" transform="translate(70,257)"/>
<path d="M0 0 C1.32 0.66 2.64 1.32 4 2 C2.25 6.875 2.25 6.875 0 8 C-0.38063221 5.6739143 -0.71269945 3.33944736 -1 1 C-0.67 0.67 -0.34 0.34 0 0 Z " fill="#EE4B1E" transform="translate(84,291)"/>
<path d="M0 0 C1.28497537 3.85492611 0.4052209 5.40346836 -0.9375 9.1875 C-1.31777344 10.27417969 -1.69804687 11.36085938 -2.08984375 12.48046875 C-2.39019531 13.31191406 -2.69054687 14.14335937 -3 15 C-3.33 15 -3.66 15 -4 15 C-4.042721 13.33388095 -4.04063832 11.66617115 -4 10 C-3.67 9.67 -3.34 9.34 -3 9 C-2.72046781 6.9412232 -2.55265649 4.88271568 -2.37890625 2.8125 C-2.25386719 2.214375 -2.12882812 1.61625 -2 1 C-1.34 0.67 -0.68 0.34 0 0 Z " fill="#D56C3C" transform="translate(313,250)"/>
<path d="M0 0 C0.66 0 1.32 0 2 0 C1.45660208 4.56454251 0.20536179 7.9728176 -2 12 C-3.11126362 8.66620913 -2.95133201 6.37290439 -2 3 C-1.34 2.01 -0.68 1.02 0 0 Z " fill="#D76131" transform="translate(307,264)"/>
<path d="M0 0 C1.67542976 0.28604898 3.34385343 0.61781233 5 1 C4.67 2.32 4.34 3.64 4 5 C2.02 5.33 0.04 5.66 -2 6 C-1.125 1.125 -1.125 1.125 0 0 Z " fill="#EF8521" transform="translate(67,171)"/>
<path d="M0 0 C0.99 0 1.98 0 3 0 C3.95024979 3.69541586 3.95024979 6.30458414 3 10 C2.34 9.67 1.68 9.34 1 9 C0.5859375 6.93359375 0.5859375 6.93359375 0.375 4.4375 C0.30023438 3.61121094 0.22546875 2.78492188 0.1484375 1.93359375 C0.09945313 1.29550781 0.05046875 0.65742188 0 0 Z " fill="#F59322" transform="translate(276,153)"/>
<path d="M0 0 C0.66 0.33 1.32 0.66 2 1 C2 1.66 2 2.32 2 3 C2.66 3 3.32 3 4 3 C4 3.66 4 4.32 4 5 C5.32 5.33 6.64 5.66 8 6 C8.33 7.32 8.66 8.64 9 10 C7.72689688 9.06558465 6.456612 8.12732889 5.1875 7.1875 C4.47980469 6.66542969 3.77210938 6.14335937 3.04296875 5.60546875 C1.21468607 4.16871123 -0.39896688 2.68184237 -2 1 C-1.34 0.67 -0.68 0.34 0 0 Z " fill="#E19842" transform="translate(251,130)"/>
<path d="M0 0 C3.63559661 3.43361902 6.36113346 6.7973607 9 11 C8.01 11 7.02 11 6 11 C5.67 11.66 5.34 12.32 5 13 C4.731875 11.9275 4.46375 10.855 4.1875 9.75 C3.12368849 6.39059522 2.16633521 4.65868412 0 2 C0 1.34 0 0.68 0 0 Z " fill="#E29743" transform="translate(283,127)"/>
<path d="M0 0 C0 3.39593478 -0.52165948 4.06619881 -2.5 6.6875 C-2.9640625 7.31011719 -3.428125 7.93273437 -3.90625 8.57421875 C-4.2671875 9.04472656 -4.628125 9.51523438 -5 10 C-6 7 -6 7 -4.75 3.875 C-3 1 -3 1 0 0 Z " fill="#EEA741" transform="translate(139,105)"/>
<path d="M0 0 C2.19704654 4.39409307 2.1694129 4.81957939 0.75 9.1875 C0.34007813 10.50814453 0.34007813 10.50814453 -0.078125 11.85546875 C-1 14 -1 14 -3 15 C-2.01 10.05 -1.02 5.1 0 0 Z " fill="#F7F7F3" transform="translate(125,297)"/>
<path d="M0 0 C2.30143236 3.45214853 2.13833854 4.23479324 1.625 8.1875 C1.51414062 9.08855469 1.40328125 9.98960937 1.2890625 10.91796875 C1.19367188 11.60503906 1.09828125 12.29210937 1 13 C0.67 13 0.34 13 0 13 C-0.19658808 11.58456585 -0.38187546 10.16755969 -0.5625 8.75 C-0.66691406 7.96109375 -0.77132813 7.1721875 -0.87890625 6.359375 C-1.00027349 3.99467126 -0.69633257 2.2488963 0 0 Z " fill="#EE712E" transform="translate(315,225)"/>
<path d="M0 0 C0.33 0 0.66 0 1 0 C1 2.31 1 4.62 1 7 C-0.98 7.66 -2.96 8.32 -5 9 C-2.25 2.25 -2.25 2.25 0 0 Z " fill="#EF9A23" transform="translate(122,123)"/>
<path d="M0 0 C0.598125 0.350625 1.19625 0.70125 1.8125 1.0625 C1.4825 1.7225 1.1525 2.3825 0.8125 3.0625 C-0.1775 2.7325 -1.1675 2.4025 -2.1875 2.0625 C-2.5175 3.3825 -2.8475 4.7025 -3.1875 6.0625 C-3.8475 4.0825 -4.5075 2.1025 -5.1875 0.0625 C-2.1875 -0.9375 -2.1875 -0.9375 0 0 Z " fill="#ED5823" transform="translate(302.1875,272.9375)"/>
<path d="M0 0 C0 1.32 0 2.64 0 4 C-1.98 4.66 -3.96 5.32 -6 6 C-6 4.35 -6 2.7 -6 1 C-3.92446352 0.4465236 -2.15634036 0 0 0 Z " fill="#F4A021" transform="translate(118,108)"/>
<path d="M0 0 C0.66 0.33 1.32 0.66 2 1 C2 7.27 2 13.54 2 20 C1.67 20 1.34 20 1 20 C0.83225597 17.22922802 0.66576064 14.45839073 0.5 11.6875 C0.45230469 10.90181641 0.40460938 10.11613281 0.35546875 9.30664062 C0.31035156 8.54931641 0.26523438 7.79199219 0.21875 7.01171875 C0.17685547 6.31522217 0.13496094 5.61872559 0.09179688 4.90112305 C0.01299029 3.26903034 0 1.63399421 0 0 Z " fill="#F4F4F5" transform="translate(187,28)"/>
<path d="M0 0 C0.66 0.33 1.32 0.66 2 1 C1.38722388 3.96175123 0.74627478 5.38058783 -1 8 C-1.99 8 -2.98 8 -4 8 C-2.87548273 5.0280615 -1.77706209 2.66559313 0 0 Z " fill="#CA4E36" transform="translate(155,336)"/>
<path d="M0 0 C0 2.64 0 5.28 0 8 C-0.33 6.68 -0.66 5.36 -1 4 C-2.65 4 -4.3 4 -6 4 C-5.67 3.01 -5.34 2.02 -5 1 C-3 0 -3 0 0 0 Z " fill="#EB5324" transform="translate(112,292)"/>
<path d="M0 0 C2.39763185 2.39763185 2.34280586 3.33273498 2.625 6.625 C2.69976562 7.44226563 2.77453125 8.25953125 2.8515625 9.1015625 C2.90054687 9.72804687 2.94953125 10.35453125 3 11 C1.68 10.67 0.36 10.34 -1 10 C-1 8.68 -1 7.36 -1 6 C-0.34 6 0.32 6 1 6 C0.67 4.02 0.34 2.04 0 0 Z " fill="#EC932F" transform="translate(307,164)"/>
<path d="M0 0 C-0.99 0 -1.98 0 -3 0 C-3 0.66 -3 1.32 -3 2 C-6.50776784 3.60355101 -9.14354879 4.22036864 -13 4 C-8.93522219 0.68795882 -5.26054188 -1.94834884 0 0 Z " fill="#EAA13D" transform="translate(144,95)"/>
<path d="M0 0 C0.99 0.33 1.98 0.66 3 1 C3.33 2.98 3.66 4.96 4 7 C2.68 7.33 1.36 7.66 0 8 C0 5.36 0 2.72 0 0 Z " fill="#F28B21" transform="translate(296,149)"/>
<path d="M0 0 C1.67542976 0.28604898 3.34385343 0.61781233 5 1 C0.25 4.875 0.25 4.875 -2 6 C-1.125 1.125 -1.125 1.125 0 0 Z " fill="#D3532E" transform="translate(261,323)"/>
<path d="M0 0 C0.99 0.495 0.99 0.495 2 1 C2 1.66 2 2.32 2 3 C2.66 3 3.32 3 4 3 C4.33 4.98 4.66 6.96 5 9 C2 8 2 8 0 5 C-0.125 2.3125 -0.125 2.3125 0 0 Z " fill="#F49F2D" transform="translate(244,122)"/>
<path d="M0 0 C3.25696479 0.41755959 4.63443291 0.63443291 7 3 C5.68 3 4.36 3 3 3 C2.67 3.99 2.34 4.98 2 6 C2 5.34 2 4.68 2 4 C1.34 4 0.68 4 0 4 C-0.33 3.01 -0.66 2.02 -1 1 C-0.67 0.67 -0.34 0.34 0 0 Z " fill="#EAAE60" transform="translate(219,88)"/>
<path d="M0 0 C0.66 0.33 1.32 0.66 2 1 C1.8125 2.8125 1.8125 2.8125 1 5 C-1.5625 6.75 -1.5625 6.75 -4 8 C-3.67 6.68 -3.34 5.36 -3 4 C-2.01 4 -1.02 4 0 4 C0 2.68 0 1.36 0 0 Z " fill="#D16238" transform="translate(297,283)"/>
<path d="M0 0 C0.99 0 1.98 0 3 0 C3.99 2.97 4.98 5.94 6 9 C2.91910327 6.22719294 1.31224548 3.93673644 0 0 Z " fill="#D65F3B" transform="translate(75,284)"/>
<path d="M0 0 C0.33 0 0.66 0 1 0 C0.67 3.3 0.34 6.6 0 10 C-0.66 10 -1.32 10 -2 10 C-3.39195915 5.82412255 -1.82323219 3.86525224 0 0 Z " fill="#E49338" transform="translate(69,160)"/>
<path d="M0 0 C2.31 0.66 4.62 1.32 7 2 C6.67 2.66 6.34 3.32 6 4 C4.35 4 2.7 4 1 4 C0.67 2.68 0.34 1.36 0 0 Z " fill="#F59925" transform="translate(281,132)"/>
<path d="M0 0 C-0.33 0.66 -0.66 1.32 -1 2 C-1.99 2 -2.98 2 -4 2 C-4 2.66 -4 3.32 -4 4 C-4.99 3.67 -5.98 3.34 -7 3 C-6.67 2.01 -6.34 1.02 -6 0 C-3 -1 -3 -1 0 0 Z " fill="#EF5628" transform="translate(228,322)"/>
<path d="M0 0 C-0.33 1.65 -0.66 3.3 -1 5 C-2.32 4.34 -3.64 3.68 -5 3 C-5 2.34 -5 1.68 -5 1 C-2 0 -2 0 0 0 Z " fill="#F6572C" transform="translate(267,318)"/>
<path d="M0 0 C0.598125 0.20625 1.19625 0.4125 1.8125 0.625 C0.4375 2.625 0.4375 2.625 -1.1875 4.625 C-1.8475 4.625 -2.5075 4.625 -3.1875 4.625 C-3.1875 3.965 -3.1875 3.305 -3.1875 2.625 C-3.8475 2.295 -4.5075 1.965 -5.1875 1.625 C-2.1875 -0.375 -2.1875 -0.375 0 0 Z " fill="#BF4426" transform="translate(277.1875,312.375)"/>
<path d="M0 0 C2 2 2 2 2.125 4.625 C2.08375 5.40875 2.0425 6.1925 2 7 C1.01 7 0.02 7 -1 7 C-1.04254356 5.00045254 -1.04080783 2.99958364 -1 1 C-0.67 0.67 -0.34 0.34 0 0 Z " fill="#F05921" transform="translate(97,273)"/>
<path d="M0 0 C2.475 0.99 2.475 0.99 5 2 C4.67 2.99 4.34 3.98 4 5 C2.68 4.67 1.36 4.34 0 4 C0 2.68 0 1.36 0 0 Z " fill="#F79F1E" transform="translate(240,99)"/>
<path d="M0 0 C0.99 0.33 1.98 0.66 3 1 C3.73046875 3.06640625 3.73046875 3.06640625 4.1875 5.5625 C4.34605469 6.38878906 4.50460937 7.21507812 4.66796875 8.06640625 C4.77753906 8.70449219 4.88710938 9.34257812 5 10 C1.71669856 7.07651242 1.04133067 4.24542505 0 0 Z " fill="#EC9336" transform="translate(273,152)"/>
<path d="M0 0 C-0.33 0.99 -0.66 1.98 -1 3 C-2.32 3 -3.64 3 -5 3 C-5 2.34 -5 1.68 -5 1 C-5.66 0.67 -6.32 0.34 -7 0 C-4.3333581 -1.33332095 -2.83319697 -0.67102033 0 0 Z " fill="#EC9222" transform="translate(103,153)"/>
<path d="M0 0 C1.32 0 2.64 0 4 0 C4 1.32 4 2.64 4 4 C2.68 4 1.36 4 0 4 C-0.33 3.01 -0.66 2.02 -1 1 C-0.67 0.67 -0.34 0.34 0 0 Z " fill="#F59625" transform="translate(260,136)"/>
<path d="M0 0 C0.75 1.625 0.75 1.625 1 4 C-0.9375 7.25 -0.9375 7.25 -3 10 C-3.625 8.1875 -3.625 8.1875 -4 6 C-3.34 5.01 -2.68 4.02 -2 3 C-1.34 3 -0.68 3 0 3 C0 2.01 0 1.02 0 0 Z " fill="#E6A33D" transform="translate(145,94)"/>
</svg>
